<svg xmlns="http://www.w3.org/2000/svg" height="16" width="16" class="atds-svg"><title/><path d="M8 14.185C5.115 11.428 1.333 6.968 1.333 4.454C1.333 2.298 2.713 1.333 4.081 1.333C5.1 1.333 6.157 1.83 7.058 2.73L8 3.672L8.942 2.73C9.843 1.83 10.9 1.333 11.919 1.333C13.287 1.333 14.667 2.298 14.667 4.454C14.667 6.964 10.884 11.426 8 14.185ZM11.919 0C10.632 0 9.226 0.561 8 1.787C6.774 0.561 5.369 0 4.081 0C1.866 0 0 1.661 0 4.454C0 8.872 8 16 8 16C8 16 16 8.872 16 4.454C16 1.66 14.134 0 11.919 0Z"/></svg>