<svg xmlns="http://www.w3.org/2000/svg" height="16" width="16" class="atds-svg"><title/><path d="M8 6.6666C7.265 6.6666 6.667 6.0676 6.667 5.3326C6.667 4.5976 7.265 3.9996 8 3.9996C8.735 3.9996 9.333 4.5976 9.333 5.3326C9.333 6.0676 8.735 6.6666 8 6.6666ZM8 2.6666C6.527 2.6666 5.333 3.8596 5.333 5.3326C5.333 6.8056 6.527 7.9996 8 7.9996C9.473 7.9996 10.667 6.8056 10.667 5.3326C10.667 3.8596 9.473 2.6666 8 2.6666ZM12.8823 12.524C12.0573 10.646 10.1833 9.333 8.0003 9.333C5.8173 9.333 3.9433 10.646 3.1173 12.524C2.0143 11.334 1.3333 9.747 1.3333 8C1.3333 5.427 2.7703 3.129 5.0843 2.003C5.9953 1.558 6.9763 1.333 8.0003 1.333C11.6753 1.333 14.6673 4.324 14.6673 8C14.6673 9.747 13.9863 11.334 12.8823 12.524ZM8.0003 14.667C6.5823 14.667 5.2683 14.217 4.1863 13.46C4.6993 11.842 6.2153 10.667 8.0003 10.667C9.7853 10.667 11.3003 11.842 11.8133 13.46C10.7313 14.217 9.4183 14.667 8.0003 14.667ZM8.0003 0C6.7453 0 5.5573 0.289 4.5003 0.804C1.8363 2.102 0.000301361 4.837 0.000301361 8C0.000301361 10.389 1.0533 12.527 2.7143 13.994C3.1133 14.346 3.5483 14.661 4.0133 14.928C5.1883 15.606 6.5473 16 8.0003 16C9.4533 16 10.8123 15.606 11.9863 14.928C12.4523 14.661 12.8863 14.346 13.2863 13.994C14.9473 12.527 16.0003 10.389 16.0003 8C16.0003 3.582 12.4183 0 8.0003 0Z"/></svg>